<svg width="1200" height="630" viewBox="0 0 1200 630" fill="none" xmlns="http://www.w3.org/2000/svg">
  <!-- Background gradient -->
  <rect width="1200" height="630" fill="url(#gradient1)"/>
  <defs>
    <linearGradient id="gradient1" x1="0" y1="0" x2="1200" y2="630">
      <stop offset="0%" style="stop-color:#6366f1;stop-opacity:1" />
      <stop offset="50%" style="stop-color:#8b5cf6;stop-opacity:1" />
      <stop offset="100%" style="stop-color:#ec4899;stop-opacity:1" />
    </linearGradient>
  </defs>
  
  <!-- Decorative circles -->
  <circle cx="100" cy="100" r="150" fill="rgba(255,255,255,0.1)"/>
  <circle cx="1100" cy="530" r="120" fill="rgba(255,255,255,0.1)"/>
  <circle cx="950" cy="150" r="80" fill="rgba(255,255,255,0.15)"/>
  
  <!-- AI Brain Icon -->
  <g transform="translate(500, 150)">
    <!-- Brain shape -->
    <path d="M100 0C77.9 0 60 17.9 60 40C40 40 20 60 20 80C20 95 27.5 108.2 38.8 116C27.5 123.8 20 137 20 152C20 172 40 192 60 192C60 214.1 77.9 232 100 232C122.1 232 140 214.1 140 192C160 192 180 172 180 152C180 137 172.5 123.8 161.2 116C172.5 108.2 180 95 180 80C180 60 160 40 140 40C140 17.9 122.1 0 100 0Z" 
          fill="rgba(255,255,255,0.9)" stroke="rgba(255,255,255,1)" stroke-width="3"/>
    
    <!-- Neural connections -->
    <circle cx="70" cy="80" r="8" fill="#6366f1"/>
    <circle cx="100" cy="100" r="8" fill="#8b5cf6"/>
    <circle cx="130" cy="80" r="8" fill="#ec4899"/>
    <circle cx="70" cy="140" r="8" fill="#6366f1"/>
    <circle cx="130" cy="140" r="8" fill="#ec4899"/>
    
    <line x1="70" y1="80" x2="100" y2="100" stroke="rgba(99,102,241,0.6)" stroke-width="2"/>
    <line x1="130" y1="80" x2="100" y2="100" stroke="rgba(236,72,153,0.6)" stroke-width="2"/>
    <line x1="70" y1="140" x2="100" y2="100" stroke="rgba(99,102,241,0.6)" stroke-width="2"/>
    <line x1="130" y1="140" x2="100" y2="100" stroke="rgba(236,72,153,0.6)" stroke-width="2"/>
  </g>
  
  <!-- Tools icons -->
  <g transform="translate(250, 380)">
    <!-- Wrench -->
    <rect x="0" y="30" width="15" height="80" rx="5" fill="rgba(255,255,255,0.8)"/>
    <circle cx="7.5" cy="20" r="15" fill="rgba(255,255,255,0.8)"/>
  </g>
  
  <g transform="translate(350, 380)">
    <!-- Gear -->
    <circle cx="35" cy="55" r="25" fill="none" stroke="rgba(255,255,255,0.8)" stroke-width="12"/>
    <circle cx="35" cy="55" r="12" fill="rgba(255,255,255,0.8)"/>
  </g>
  
  <g transform="translate(450, 380)">
    <!-- Code brackets -->
    <text x="0" y="70" font-family="monospace" font-size="60" fill="rgba(255,255,255,0.8)" font-weight="bold">&lt;/&gt;</text>
  </g>
  
  <!-- Text -->
  <text x="600" y="500" font-family="Arial, sans-serif" font-size="56" font-weight="bold" fill="white" text-anchor="middle">
    Best AI Tools 2025
  </text>
  <text x="600" y="550" font-family="Arial, sans-serif" font-size="28" fill="rgba(255,255,255,0.9)" text-anchor="middle">
    Discover the cutting-edge tools transforming development
  </text>
</svg>
